<?xml version="1.0" encoding="UTF-8" standalone="no"?>
<svg
        xmlns:dc="http://purl.org/dc/elements/1.1/"
        xmlns:cc="http://creativecommons.org/ns#"
        xmlns:rdf="http://www.w3.org/1999/02/22-rdf-syntax-ns#"
        xmlns="http://www.w3.org/2000/svg"
        xmlns:sodipodi="http://sodipodi.sourceforge.net/DTD/sodipodi-0.dtd"
        xmlns:inkscape="http://www.inkscape.org/namespaces/inkscape"
        version="1.1"
        width="24"
        height="24"
        viewBox="0 0 24 24"
        id="svg2"
        inkscape:version="0.91 r13725"
        sodipodi:docname="cards.svg">
    <metadata
            id="metadata10">
        <rdf:RDF>
            <cc:Work
                    rdf:about="">
                <dc:format>image/svg+xml</dc:format>
                <dc:type
                        rdf:resource="http://purl.org/dc/dcmitype/StillImage"/>
            </cc:Work>
        </rdf:RDF>
    </metadata>
    <defs
            id="defs8"/>
    <sodipodi:namedview
            pagecolor="#ffffff"
            bordercolor="#666666"
            borderopacity="1"
            objecttolerance="10"
            gridtolerance="10"
            guidetolerance="10"
            inkscape:pageopacity="0"
            inkscape:pageshadow="2"
            inkscape:window-width="1087"
            inkscape:window-height="806"
            id="namedview6"
            showgrid="false"
            inkscape:zoom="9.8333333"
            inkscape:cx="12"
            inkscape:cy="12"
            inkscape:window-x="2681"
            inkscape:window-y="33"
            inkscape:window-maximized="0"
            inkscape:current-layer="svg2"/>
    <path
            d="M21.47,4.35L20.13,3.79V12.82L22.56,6.96C22.97,5.94 22.5,4.77 21.47,4.35M1.97,8.05L6.93,20C7.24,20.77 7.97,21.24 8.74,21.26C9,21.26 9.27,21.21 9.53,21.1L16.9,18.05C17.65,17.74 18.11,17 18.13,16.26C18.14,16 18.09,15.71 18,15.45L13,3.5C12.71,2.73 11.97,2.26 11.19,2.25C10.93,2.25 10.67,2.31 10.42,2.4L3.06,5.45C2.04,5.87 1.55,7.04 1.97,8.05M18.12,4.25A2,2 0 0,0 16.12,2.25H14.67L18.12,10.59"
            id="path4"
            style="fill:#8bc34a;fill-opacity:1"/>
</svg>
